# 3ds Max Wavefront OBJ Exporter v0.97b - (c)2007 guruware
# File Created: 05.02.2014 02:41:49

mtllib ArrowSign.mtl

#
# object SketchUp
#

v  26.9520 -50.0000 -16.5063
v  -23.0480 -50.0000 -2.3500
v  -23.0480 -50.0000 -16.5063
v  26.9520 -50.0000 -2.3500
# 4 vertices

vn 0.0000 -1.0000 -0.0000
# 1 vertex normals

vt 0.2724 -0.6169 0.0000
vt 0.1518 -0.6411 0.0000
vt 0.1517 -0.6180 0.0000
vt 0.2725 -0.6400 0.0000
# 4 texture coords

g SketchUp
usemtl m0
s off
f 1/1/1 2/2/1 3/3/1 
f 2/2/1 1/1/1 4/4/1 
# 0 polygons - 2 triangles

#
# object n0b0
#

v  71.9364 280.8438 -18.8031
v  239.9833 170.0000 -18.8031
v  207.4833 170.0000 -28.1938
v  92.7489 247.2188 -28.1938
v  71.9364 59.1406 -18.8031
v  92.7489 214.9844 -30.9281
v  71.9364 226.2813 -18.8031
v  92.7489 92.7656 -28.1938
v  103.8426 170.0000 -32.7094
v  71.9364 113.7031 -18.8031
v  92.7489 125.0000 -30.9281
v  75.6551 205.0000 -31.3813
v  65.6551 220.0000 -18.8031
v  -163.0480 215.0000 -28.1938
v  75.6551 135.0000 -31.3813
v  -163.0480 125.0000 -28.1938
v  65.6551 120.0000 -18.8031
v  -178.0480 230.0000 -18.8031
v  -178.0480 110.0000 -18.8031
# 19 vertices

vn 0.2559 0.3879 -0.8855
vn 0.2790 0.4146 -0.8662
vn 0.2559 -0.3878 -0.8855
vn 0.0568 0.0844 -0.9948
vn -0.4113 0.0000 -0.9115
vn 0.2791 -0.4147 -0.8661
vn -0.4715 0.0745 -0.8787
vn 0.0435 0.0502 -0.9978
vn 0.0568 -0.0844 -0.9948
vn -0.2466 0.4608 -0.8526
vn 0.0030 0.0403 -0.9992
vn 0.0435 -0.0502 -0.9978
vn -0.4715 -0.0745 -0.8787
vn -0.4099 0.4099 -0.8148
vn -0.0122 0.0281 -0.9995
vn 0.0029 -0.0403 -0.9992
vn -0.2468 -0.4605 -0.8527
vn 0.0170 0.6491 -0.7605
vn -0.0169 0.0000 -0.9999
vn -0.0122 -0.0281 -0.9995
vn -0.4105 -0.4095 -0.8147
vn 0.0224 0.5465 -0.8371
vn -0.5306 0.0000 -0.8476
vn 0.0113 -0.5387 -0.8424
vn 0.0268 -0.6527 -0.7571
# 25 vertex normals

vt 0.3434 0.4229 0.0000
vt 0.4659 0.1060 0.0000
vt 0.4659 0.1484 0.0000
vt 0.3806 0.3835 0.0000
vt 0.5884 0.4229 0.0000
vt 0.4162 0.3835 0.0000
vt 0.4037 0.4229 0.0000
vt 0.5512 0.3835 0.0000
vt 0.4659 0.3627 0.0000
vt 0.5281 0.4229 0.0000
vt 0.5156 0.3835 0.0000
vt 0.4272 0.4158 0.0000
vt 0.4106 0.4347 0.0000
vt 0.4162 0.8658 0.0000
vt 0.5046 0.4158 0.0000
vt 0.5156 0.8658 0.0000
vt 0.5211 0.4347 0.0000
vt 0.3997 0.8942 0.0000
vt 0.5322 0.8942 0.0000
# 19 texture coords

g n0b0
usemtl m0
s off
f 5/5/2 6/6/2 7/7/2 
f 5/5/3 7/7/3 8/8/3 
f 6/6/4 9/9/4 7/7/4 
f 8/8/5 7/7/5 10/10/5 
f 5/5/6 8/8/6 11/11/6 
f 7/7/7 9/9/7 12/12/7 
f 8/8/8 10/10/8 11/11/8 
f 10/10/9 7/7/9 13/13/9 
f 14/14/6 12/12/6 9/9/6 
f 7/7/10 12/12/10 15/15/10 
f 11/11/11 10/10/11 16/16/11 
f 10/10/12 13/13/12 16/16/12 
f 7/7/13 15/15/13 13/13/13 
f 15/15/14 12/12/14 14/14/14 
f 11/11/15 16/16/15 17/17/15 
f 18/18/16 16/16/16 13/13/16 
f 13/13/17 15/15/17 19/19/17 
f 19/19/18 15/15/18 14/14/18 
f 17/17/19 16/16/19 18/18/19 
f 18/18/20 13/13/20 20/20/20 
f 13/13/21 19/19/21 20/20/21 
f 19/19/22 14/14/22 21/21/22 
f 22/22/23 17/17/23 18/18/23 
f 18/18/24 20/20/24 23/23/24 
f 19/19/25 23/23/25 20/20/25 
f 19/19/26 21/21/26 23/23/26 
f 22/22/24 18/18/24 23/23/24 
# 0 polygons - 27 triangles

#
# object ID19
#

v  71.9364 280.8438 -0.0531
v  207.4833 169.9844 9.3375
v  239.9833 170.0000 -0.0531
v  92.7489 247.2188 9.3375
v  71.9364 59.1406 -0.0531
v  71.9364 226.2813 -0.0531
v  92.7489 214.9844 12.0719
v  92.7489 92.7656 9.3375
v  103.8426 170.0000 13.8531
v  92.7489 125.0000 12.0719
v  71.9364 113.7031 -0.0531
v  75.6551 204.9844 12.5250
v  65.6551 219.9844 -0.0531
v  -163.0480 215.0000 9.3375
v  75.6551 135.0000 12.5250
v  -163.0480 125.0000 9.3375
v  65.6551 119.9844 -0.0531
v  -178.0480 230.0000 -0.0531
v  -178.0480 110.0000 -0.0531
# 19 vertices

vn 0.2557 0.3877 0.8856
vn 0.2791 0.4147 0.8661
vn 0.2560 -0.3881 0.8854
vn -0.4113 0.0000 0.9115
vn 0.0568 0.0844 0.9948
vn 0.2790 -0.4146 0.8662
vn -0.4715 0.0745 0.8787
vn 0.0435 0.0502 0.9978
vn 0.0568 -0.0844 0.9948
vn -0.2468 0.4605 0.8527
vn 0.0029 0.0403 0.9992
vn 0.0435 -0.0502 0.9978
vn -0.4715 -0.0745 0.8787
vn -0.4105 0.4095 0.8147
vn -0.0122 0.0281 0.9995
vn 0.0029 -0.0403 0.9992
vn -0.2468 -0.4605 0.8527
vn 0.0171 0.6491 0.7605
vn -0.0169 0.0000 0.9999
vn -0.0122 -0.0281 0.9995
vn -0.4098 -0.4098 0.8150
vn 0.0225 0.5465 0.8371
vn -0.5306 0.0000 0.8476
vn 0.0113 -0.5387 0.8424
vn 0.0267 -0.6523 0.7575
# 25 vertex normals

vt 0.3441 0.4229 0.0000
vt 0.4666 0.1484 0.0000
vt 0.4666 0.1060 0.0000
vt 0.3813 0.3835 0.0000
vt 0.5891 0.4229 0.0000
vt 0.4044 0.4229 0.0000
vt 0.4169 0.3835 0.0000
vt 0.5519 0.3835 0.0000
vt 0.4666 0.3627 0.0000
vt 0.5163 0.3835 0.0000
vt 0.5287 0.4229 0.0000
vt 0.4279 0.4158 0.0000
vt 0.4114 0.4347 0.0000
vt 0.4169 0.8658 0.0000
vt 0.5052 0.4158 0.0000
vt 0.5163 0.8658 0.0000
vt 0.5218 0.4347 0.0000
vt 0.4003 0.8942 0.0000
vt 0.5328 0.8942 0.0000
# 19 texture coords

g ID19
usemtl m0
s off
f 24/24/27 25/25/27 26/26/27 
f 24/24/28 27/27/28 25/25/28 
f 26/26/29 25/25/29 28/28/29 
f 24/24/30 29/29/30 27/27/30 
f 27/27/31 30/30/31 25/25/31 
f 25/25/32 31/31/32 28/28/32 
f 27/27/33 29/29/33 30/30/33 
f 30/30/34 32/32/34 25/25/34 
f 25/25/35 33/33/35 31/31/35 
f 34/34/30 28/28/30 31/31/30 
f 29/29/36 35/35/36 30/30/36 
f 30/30/37 35/35/37 32/32/37 
f 32/32/38 33/33/38 25/25/38 
f 33/33/39 34/34/39 31/31/39 
f 29/29/40 36/36/40 35/35/40 
f 37/37/41 32/32/41 35/35/41 
f 32/32/42 38/38/42 33/33/42 
f 38/38/43 34/34/43 33/33/43 
f 36/36/44 37/37/44 35/35/44 
f 37/37/45 39/39/45 32/32/45 
f 32/32/46 39/39/46 38/38/46 
f 38/38/47 40/40/47 34/34/47 
f 41/41/48 37/37/48 36/36/48 
f 37/37/49 42/42/49 39/39/49 
f 38/38/50 39/39/50 42/42/50 
f 38/38/51 42/42/51 40/40/51 
f 41/41/49 42/42/49 37/37/49 
# 0 polygons - 27 triangles

#
# object ID27
#

v  49.4364 235.0000 -20.8656
v  49.4364 235.0000 2.0094
v  56.9364 242.5000 -20.8656
v  56.9364 242.5000 2.0094
v  71.9364 226.2813 -29.6313
v  -195.5480 245.0000 2.0094
v  71.9364 226.2813 10.7750
v  56.9364 306.8594 -20.8656
v  65.6551 220.0000 -29.6313
v  71.9364 280.8438 -29.6313
v  -195.5480 245.0000 -20.8656
v  65.6551 220.0000 10.7750
v  71.9364 280.8438 10.7750
v  56.9364 306.8594 2.0094
v  81.9364 216.2813 -9.4281
v  81.9364 260.8438 -9.4281
v  -203.0480 237.5000 2.0094
v  -178.0480 230.0000 10.7750
v  75.6551 210.0000 -9.4281
v  64.4364 310.0000 -20.8656
v  -178.0480 230.0000 -29.6313
v  209.9833 170.0000 -9.4281
v  -203.0480 237.5000 -20.8656
v  -168.0480 220.0000 -9.4281
v  64.4364 310.0000 2.0094
v  239.9833 170.0000 -29.6313
v  239.9833 170.0000 10.7750
v  -203.0480 102.5000 2.0094
v  -178.0480 109.9844 10.7750
v  -168.0480 119.9844 -9.4281
v  266.9364 174.0938 -20.8656
v  -178.0480 109.9844 -29.6313
v  81.9364 79.1406 -9.4281
v  71.9364 59.1406 10.7750
v  -203.0480 102.5000 -20.8656
v  266.9364 174.0938 2.0094
v  266.9364 165.8906 -20.8656
v  71.9364 59.1406 -29.6313
v  266.9364 165.8906 2.0094
v  -195.5480 95.0000 2.0094
v  75.6551 130.0000 -9.4281
v  65.6551 120.0000 -29.6313
v  -195.5480 94.9844 -20.8656
v  81.9364 123.7031 -9.4281
v  71.9364 113.7031 10.7750
v  64.4364 30.0000 2.0094
v  49.4364 105.0000 2.0094
v  65.6551 120.0000 10.7750
v  49.4364 105.0000 -20.8656
v  64.4364 30.0000 -20.8656
v  71.9364 113.7031 -29.6313
v  56.9364 33.1250 2.0094
v  56.9364 97.5000 -20.8656
v  56.9364 33.1250 -20.8656
v  56.9364 97.5000 2.0094
# 55 vertices

vn -0.7071 0.7071 -0.0000
vn -0.2610 0.2610 -0.9294
vn 0.0408 0.9992 0.0000
vn -0.2610 0.2610 0.9294
vn -1.0000 0.0000 -0.0000
vn -0.5045 0.0000 -0.8634
vn 0.0213 0.5215 0.8530
vn -0.5045 0.0000 0.8634
vn 0.5793 -0.5793 -0.5735
vn 0.0213 0.5215 -0.8530
vn 0.8962 0.0000 -0.4436
vn 0.0215 0.5230 0.8521
vn 0.5793 -0.5793 0.5735
vn 0.8962 -0.0000 0.4436
vn -0.3863 0.9224 -0.0000
vn -0.1090 0.2604 -0.9593
vn 0.8962 -0.0000 -0.4436
vn 0.0215 0.5230 -0.8521
vn -0.5132 -0.7233 -0.4620
vn -0.2520 0.2520 0.9343
vn -0.0370 -0.9028 0.4285
vn -0.1090 0.2604 0.9593
vn 0.8962 0.0000 0.4436
vn 0.2191 0.3322 -0.9174
vn -0.0370 -0.9028 -0.4285
vn -0.2520 0.2520 -0.9343
vn -0.4263 -0.6463 -0.6330
vn -0.4389 -0.6186 0.6517
vn -0.3309 0.0000 0.9437
vn 0.2191 0.3322 0.9174
vn -0.4817 -0.7302 0.4845
vn 0.5573 0.8303 -0.0000
vn 0.2395 0.3568 -0.9030
vn -0.3309 0.0000 -0.9437
vn -0.4389 0.6185 -0.6517
vn -0.4263 0.6462 0.6330
vn -0.3309 -0.0000 0.9437
vn 0.2395 0.3568 0.9030
vn 0.3093 0.0000 -0.9510
vn -0.3309 -0.0000 -0.9437
vn -0.4817 0.7302 -0.4844
vn -0.5132 0.7233 0.4620
vn 0.2382 -0.3610 0.9016
vn -0.7071 -0.7071 -0.0000
vn -0.2521 -0.2521 0.9343
vn -0.0371 0.9028 0.4285
vn -0.0371 0.9028 -0.4285
vn 0.3093 0.0000 0.9510
vn 1.0000 0.0000 -0.0000
vn 0.2382 -0.3610 -0.9016
vn -0.2522 -0.2517 -0.9343
vn 0.2235 -0.3331 0.9160
vn -0.7078 -0.7064 0.0005
vn 0.0214 -0.5233 0.8519
vn 0.0214 -0.5216 -0.8529
vn 0.5572 -0.8304 -0.0000
vn 0.2235 -0.3331 -0.9160
vn 0.0214 -0.5229 -0.8521
vn -0.1086 -0.2606 0.9593
vn 0.0408 -0.9992 0.0007
vn 0.0214 -0.5216 0.8529
vn 0.5800 0.5786 0.5735
vn 0.5800 0.5786 -0.5735
vn -0.2610 -0.2610 -0.9294
vn -0.1086 -0.2606 -0.9593
vn 0.0408 -0.9992 -0.0000
vn -0.3846 -0.9231 -0.0000
vn -0.2610 -0.2610 0.9294
vn -0.2614 -0.2608 -0.9293
vn -0.2614 -0.2608 0.9293
# 70 vertex normals

vt 0.2522 -0.7241 0.0000
vt 0.2364 -0.7349 0.0000
vt 0.2593 -0.7003 0.0000
vt 0.2435 -0.7112 0.0000
vt 0.2529 -0.6503 0.0000
vt 0.2424 -1.6726 0.0000
vt 0.2372 -0.6610 0.0000
vt 0.3221 -0.7083 0.0000
vt 0.2374 -0.7019 0.0000
vt 0.2964 -0.6558 0.0000
vt 0.2582 -1.6619 0.0000
vt 0.2216 -0.7126 0.0000
vt 0.2806 -0.6665 0.0000
vt 0.3063 -0.7191 0.0000
vt 0.2451 -0.6556 0.0000
vt 0.2885 -0.6611 0.0000
vt 0.2352 -1.6963 0.0000
vt 0.2276 -1.6461 0.0000
vt 0.2295 -0.7073 0.0000
vt 0.3250 -0.6840 0.0000
vt 0.2434 -1.6353 0.0000
vt 0.1682 -0.2579 0.0000
vt 0.2510 -1.6855 0.0000
vt 0.2355 -1.6407 0.0000
vt 0.3092 -0.6948 0.0000
vt 0.1761 -0.2526 0.0000
vt 0.1603 -0.2633 0.0000
vt 0.1036 -1.6798 0.0000
vt 0.1106 -1.6313 0.0000
vt 0.1185 -1.6260 0.0000
vt 0.1797 -0.1973 0.0000
vt 0.1264 -1.6206 0.0000
vt 0.0528 -0.6315 0.0000
vt 0.0449 -0.6368 0.0000
vt 0.1194 -1.6689 0.0000
vt 0.1639 -0.2080 0.0000
vt 0.1717 -0.1962 0.0000
vt 0.0607 -0.6261 0.0000
vt 0.1559 -0.2070 0.0000
vt 0.0961 -1.6542 0.0000
vt 0.1125 -0.6925 0.0000
vt 0.1204 -0.6871 0.0000
vt 0.1119 -1.6434 0.0000
vt 0.0963 -0.6370 0.0000
vt 0.0884 -0.6423 0.0000
vt 0.0167 -0.6580 0.0000
vt 0.0901 -0.7166 0.0000
vt 0.1046 -0.6979 0.0000
vt 0.1059 -0.7057 0.0000
vt 0.0325 -0.6472 0.0000
vt 0.1042 -0.6316 0.0000
vt 0.0198 -0.6830 0.0000
vt 0.0984 -0.6802 0.0000
vt 0.0356 -0.6722 0.0000
vt 0.0826 -0.6909 0.0000
# 55 texture coords

g ID27
usemtl m0
s off
f 43/43/52 44/44/52 45/45/52 
f 45/45/52 44/44/52 46/46/52 
f 45/45/53 47/47/53 43/43/53 
f 43/43/54 48/48/54 44/44/54 
f 46/46/55 44/44/55 49/49/55 
f 45/45/56 46/46/56 50/50/56 
f 43/43/53 47/47/53 51/51/53 
f 52/52/57 47/47/57 45/45/57 
f 43/43/54 53/53/54 48/48/54 
f 48/48/58 54/54/58 44/44/58 
f 44/44/55 54/54/55 49/49/55 
f 55/55/59 46/46/59 49/49/59 
f 50/50/56 46/46/56 56/56/56 
f 50/50/57 52/52/57 45/45/57 
f 57/57/60 51/51/60 47/47/60 
f 53/53/61 43/43/61 51/51/61 
f 52/52/62 58/58/62 47/47/62 
f 53/53/52 59/59/52 48/48/52 
f 48/48/63 60/60/63 54/54/63 
f 61/61/64 49/49/64 54/54/64 
f 56/56/59 46/46/59 55/55/59 
f 57/57/65 55/55/65 49/49/65 
f 62/62/66 50/50/66 56/56/66 
f 62/62/67 52/52/67 50/50/67 
f 51/51/60 57/57/60 61/61/60 
f 47/47/68 58/58/68 57/57/68 
f 53/53/69 51/51/69 63/63/69 
f 64/64/70 58/58/70 52/52/70 
f 65/65/52 59/59/52 53/53/52 
f 48/48/71 59/59/71 60/60/71 
f 54/54/72 60/60/72 66/66/72 
f 57/57/64 49/49/64 61/61/64 
f 61/61/72 54/54/72 66/66/72 
f 67/67/73 56/56/73 55/55/73 
f 58/58/74 55/55/74 57/57/74 
f 62/62/66 56/56/66 67/67/66 
f 62/62/75 68/68/75 52/52/75 
f 61/61/76 63/63/76 51/51/76 
f 53/53/77 63/63/77 65/65/77 
f 68/68/78 64/64/78 52/52/78 
f 58/58/79 64/64/79 69/69/79 
f 65/65/56 70/70/56 59/59/56 
f 59/59/80 71/71/80 60/60/80 
f 66/66/74 60/60/74 72/72/74 
f 61/61/76 66/66/76 63/63/76 
f 67/67/81 55/55/81 69/69/81 
f 69/69/82 55/55/82 58/58/82 
f 73/73/83 62/62/83 67/67/83 
f 62/62/84 73/73/84 68/68/84 
f 65/65/85 63/63/85 74/74/85 
f 68/68/86 75/75/86 64/64/86 
f 69/69/87 64/64/87 76/76/87 
f 77/77/56 70/70/56 65/65/56 
f 59/59/88 70/70/88 71/71/88 
f 72/72/74 60/60/74 71/71/74 
f 74/74/68 66/66/68 72/72/68 
f 63/63/68 66/66/68 74/74/68 
f 67/67/89 69/69/89 78/78/89 
f 73/73/83 67/67/83 78/78/83 
f 73/73/90 79/79/90 68/68/90 
f 65/65/91 74/74/91 77/77/91 
f 68/68/92 80/80/92 75/75/92 
f 64/64/93 75/75/93 76/76/93 
f 69/69/94 76/76/94 81/81/94 
f 77/77/95 82/82/95 70/70/95 
f 71/71/96 70/70/96 82/82/96 
f 83/83/97 72/72/97 71/71/97 
f 84/84/98 74/74/98 72/72/98 
f 78/78/99 69/69/99 81/81/99 
f 73/73/100 78/78/100 81/81/100 
f 73/73/100 81/81/100 79/79/100 
f 68/68/101 79/79/101 80/80/101 
f 74/74/102 85/85/102 77/77/102 
f 80/80/62 86/86/62 75/75/62 
f 75/75/74 87/87/74 76/76/74 
f 81/81/103 76/76/103 88/88/103 
f 85/85/104 82/82/104 77/77/104 
f 71/71/105 82/82/105 89/89/105 
f 83/83/97 71/71/97 90/90/97 
f 83/83/98 84/84/98 72/72/98 
f 84/84/106 91/91/106 74/74/106 
f 81/81/107 92/92/107 79/79/107 
f 79/79/108 92/92/108 80/80/108 
f 74/74/109 91/91/109 85/85/109 
f 93/93/68 86/86/68 80/80/68 
f 86/86/74 87/87/74 75/75/74 
f 87/87/59 94/94/59 76/76/59 
f 76/76/110 94/94/110 88/88/110 
f 81/81/107 88/88/107 92/92/107 
f 89/89/111 82/82/111 85/85/111 
f 90/90/112 71/71/112 89/89/112 
f 83/83/113 90/90/113 86/86/113 
f 84/84/114 83/83/114 93/93/114 
f 84/84/115 95/95/115 91/91/115 
f 80/80/116 92/92/116 96/96/116 
f 89/89/117 85/85/117 91/91/117 
f 93/93/57 80/80/57 96/96/57 
f 93/93/114 83/83/114 86/86/114 
f 86/86/113 90/90/113 87/87/113 
f 87/87/59 97/97/59 94/94/59 
f 88/88/118 94/94/118 96/96/118 
f 88/88/118 96/96/118 92/92/118 
f 90/90/119 89/89/119 97/97/119 
f 84/84/120 93/93/120 95/95/120 
f 95/95/95 97/97/95 91/91/95 
f 91/91/95 97/97/95 89/89/95 
f 93/93/57 96/96/57 95/95/57 
f 90/90/121 97/97/121 87/87/121 
f 95/95/56 94/94/56 97/97/56 
f 96/96/56 94/94/56 95/95/56 
# 0 polygons - 110 triangles

#
# object ID35
#

v  26.9520 110.0000 -16.5063
v  26.9520 -50.0000 -2.3500
v  26.9520 -50.0000 -16.5063
v  26.9520 110.0000 -2.3500
v  -13.0324 110.0000 -16.5063
v  -23.0480 -50.0000 -2.3500
v  -23.0480 -50.0000 -16.5063
v  -13.0324 110.0000 -2.3500
# 8 vertices

vn 1.0000 0.0000 -0.0000
vn 0.0000 0.0000 -1.0000
vn 0.0000 0.0000 1.0000
vn -0.9980 0.0625 -0.0000
# 4 vertex normals

vt 0.0160 -0.4641 0.0000
vt 0.1426 -0.7268 0.0000
vt 0.0169 -0.7258 0.0000
vt 0.1417 -0.4652 0.0000
vt 0.1367 -0.4631 0.0000
vt 0.2634 -0.7257 0.0000
vt 0.1376 -0.7247 0.0000
vt 0.2625 -0.4641 0.0000
# 8 texture coords

g ID35
usemtl m0
s off
f 98/98/122 99/99/122 100/100/122 
f 98/98/122 101/101/122 99/99/122 
f 98/98/123 100/100/123 102/102/123 
f 101/101/124 103/103/124 99/99/124 
f 102/102/123 100/100/123 104/104/123 
f 105/105/124 103/103/124 101/101/124 
f 104/104/125 105/105/125 102/102/125 
f 104/104/125 103/103/125 105/105/125 
# 0 polygons - 8 triangles

